<svg width="180" height="60" viewBox="0 0 180 60" fill="none" xmlns="http://www.w3.org/2000/svg">
  <path d="M30 15H10V20H15V45H25V20H30V15Z" fill="url(#paint0_linear)"/>
  <path d="M40 15H50V30H60V15H70V45H60V35H40V15Z" fill="url(#paint1_linear)"/>
  <path d="M80 15H90V40H105V45H80V15Z" fill="url(#paint2_linear)"/>
  <path d="M115 15H140V20H125V25H135V30H125V40H140V45H115V15Z" fill="url(#paint3_linear)"/>
  <path d="M150 15H160V40H175V45H150V15Z" fill="url(#paint4_linear)"/>
  <path d="M175 15H180V20H175V15Z" fill="url(#paint5_linear)"/>
  <defs>
    <linearGradient id="paint0_linear" x1="10" y1="15" x2="30" y2="45" gradientUnits="userSpaceOnUse">
      <stop offset="0" stop-color="#6B2EFF"/>
      <stop offset="1" stop-color="#FE3388"/>
    </linearGradient>
    <linearGradient id="paint1_linear" x1="40" y1="15" x2="70" y2="45" gradientUnits="userSpaceOnUse">
      <stop offset="0" stop-color="#6B2EFF"/>
      <stop offset="1" stop-color="#FE3388"/>
    </linearGradient>
    <linearGradient id="paint2_linear" x1="80" y1="15" x2="105" y2="45" gradientUnits="userSpaceOnUse">
      <stop offset="0" stop-color="#6B2EFF"/>
      <stop offset="1" stop-color="#FE3388"/>
    </linearGradient>
    <linearGradient id="paint3_linear" x1="115" y1="15" x2="140" y2="45" gradientUnits="userSpaceOnUse">
      <stop offset="0" stop-color="#6B2EFF"/>
      <stop offset="1" stop-color="#FE3388"/>
    </linearGradient>
    <linearGradient id="paint4_linear" x1="150" y1="15" x2="175" y2="45" gradientUnits="userSpaceOnUse">
      <stop offset="0" stop-color="#6B2EFF"/>
      <stop offset="1" stop-color="#FE3388"/>
    </linearGradient>
    <linearGradient id="paint5_linear" x1="175" y1="15" x2="180" y2="20" gradientUnits="userSpaceOnUse">
      <stop offset="0" stop-color="#6B2EFF"/>
      <stop offset="1" stop-color="#FE3388"/>
    </linearGradient>
  </defs>
</svg> 