<svg width="500" height="400" viewBox="0 0 500 400" fill="none" xmlns="http://www.w3.org/2000/svg">
  <!-- Background shapes -->
  <circle cx="250" cy="200" r="150" fill="#F0F5FF"/>
  <circle cx="400" cy="100" r="50" fill="#FFE3E0"/>
  <circle cx="100" cy="300" r="70" fill="#E6F9F3"/>
  <circle cx="400" cy="350" r="30" fill="#FFEFD8"/>
  
  <!-- Float elements -->
  <circle cx="150" cy="150" r="20" fill="#FFB46A" opacity="0.8"/>
  <circle cx="350" cy="180" r="15" fill="#FF6B6B" opacity="0.8"/>
  <circle cx="300" cy="100" r="25" fill="#9969FF" opacity="0.7"/>
  <circle cx="150" cy="300" r="18" fill="#00B8D4" opacity="0.7"/>
  
  <!-- Main shape -->
  <path d="M280 200C280 244.183 244.183 280 200 280C155.817 280 120 244.183 120 200C120 155.817 155.817 120 200 120C244.183 120 280 155.817 280 200Z" fill="#6a3de8" opacity="0.2"/>
  
  <!-- Abstract wave patterns -->
  <path d="M180 220C180 220 200 250 240 230C280 210 300 250 340 230" stroke="#6a3de8" stroke-width="6" stroke-linecap="round"/>
  <path d="M160 190C160 190 200 170 220 210C240 250 280 210 320 230" stroke="#00B8D4" stroke-width="4" stroke-linecap="round"/>
  <path d="M140 170C140 170 180 200 200 160C220 120 250 150 280 120" stroke="#FF6B6B" stroke-width="5" stroke-linecap="round"/>
  
  <!-- Abstract shapes -->
  <rect x="350" y="220" width="40" height="40" rx="8" fill="#9969FF" opacity="0.6"/>
  <polygon points="130,230 150,250 110,250" fill="#00B8D4" opacity="0.6"/>
  <path d="M270 270L290 290L250 290Z" fill="#FF6B6B" opacity="0.6"/>
</svg> 